<mxfile host="app.diagrams.net" modified="2023-01-07T18:54:51.882Z" agent="5.0 (X11; Linux x86_64) AppleWebKit/537.36 (KHTML, like Gecko) Chrome/108.0.0.0 Safari/537.36" etag="H8K43KeIDj0C1n6DQy46" version="20.8.3" type="github">
  <diagram id="Y4Zai33T_N94drbJI-Wf" name="Pagina-1">
    <mxGraphModel dx="1434" dy="807" grid="1" gridSize="10" guides="1" tooltips="1" connect="1" arrows="1" fold="1" page="1" pageScale="1" pageWidth="827" pageHeight="1169" math="0" shadow="0">
      <root>
        <mxCell id="0" />
        <mxCell id="1" parent="0" />
        <mxCell id="z_uS54-GzfJ0ynrqOMLj-1" value="Welcome to hangman game!" style="rounded=0;whiteSpace=wrap;html=1;" parent="1" vertex="1">
          <mxGeometry x="322" y="20" width="184" height="70" as="geometry" />
        </mxCell>
        <mxCell id="z_uS54-GzfJ0ynrqOMLj-11" style="edgeStyle=orthogonalEdgeStyle;rounded=0;orthogonalLoop=1;jettySize=auto;html=1;exitX=1;exitY=0.5;exitDx=0;exitDy=0;" parent="1" source="z_uS54-GzfJ0ynrqOMLj-2" target="z_uS54-GzfJ0ynrqOMLj-4" edge="1">
          <mxGeometry relative="1" as="geometry" />
        </mxCell>
        <mxCell id="z_uS54-GzfJ0ynrqOMLj-2" value="Guess a letter" style="rounded=1;whiteSpace=wrap;html=1;" parent="1" vertex="1">
          <mxGeometry x="320" y="130" width="189" height="60" as="geometry" />
        </mxCell>
        <mxCell id="z_uS54-GzfJ0ynrqOMLj-10" style="edgeStyle=orthogonalEdgeStyle;rounded=0;orthogonalLoop=1;jettySize=auto;html=1;exitX=0.5;exitY=0;exitDx=0;exitDy=0;entryX=0;entryY=0.5;entryDx=0;entryDy=0;" parent="1" source="z_uS54-GzfJ0ynrqOMLj-3" target="z_uS54-GzfJ0ynrqOMLj-2" edge="1">
          <mxGeometry relative="1" as="geometry" />
        </mxCell>
        <mxCell id="z_uS54-GzfJ0ynrqOMLj-13" value="" style="edgeStyle=orthogonalEdgeStyle;rounded=0;orthogonalLoop=1;jettySize=auto;html=1;" parent="1" source="z_uS54-GzfJ0ynrqOMLj-3" target="z_uS54-GzfJ0ynrqOMLj-12" edge="1">
          <mxGeometry relative="1" as="geometry" />
        </mxCell>
        <mxCell id="z_uS54-GzfJ0ynrqOMLj-3" value="If the letter in the list&lt;br&gt;continue" style="rhombus;whiteSpace=wrap;html=1;" parent="1" vertex="1">
          <mxGeometry x="70" y="230" width="240" height="110" as="geometry" />
        </mxCell>
        <mxCell id="z_uS54-GzfJ0ynrqOMLj-16" value="" style="edgeStyle=orthogonalEdgeStyle;rounded=0;orthogonalLoop=1;jettySize=auto;html=1;" parent="1" source="z_uS54-GzfJ0ynrqOMLj-4" target="z_uS54-GzfJ0ynrqOMLj-15" edge="1">
          <mxGeometry relative="1" as="geometry" />
        </mxCell>
        <mxCell id="z_uS54-GzfJ0ynrqOMLj-4" value="if the letter is not in the list&amp;nbsp;&lt;br&gt;make the drawing of the hangman" style="rhombus;whiteSpace=wrap;html=1;" parent="1" vertex="1">
          <mxGeometry x="530" y="220" width="230" height="120" as="geometry" />
        </mxCell>
        <mxCell id="z_uS54-GzfJ0ynrqOMLj-19" value="" style="edgeStyle=orthogonalEdgeStyle;rounded=0;orthogonalLoop=1;jettySize=auto;html=1;" parent="1" source="z_uS54-GzfJ0ynrqOMLj-12" target="z_uS54-GzfJ0ynrqOMLj-18" edge="1">
          <mxGeometry relative="1" as="geometry" />
        </mxCell>
        <mxCell id="z_uS54-GzfJ0ynrqOMLj-12" value="print the letter and the unknown letter with underscore&amp;nbsp;" style="whiteSpace=wrap;html=1;" parent="1" vertex="1">
          <mxGeometry x="130" y="410" width="120" height="60" as="geometry" />
        </mxCell>
        <mxCell id="z_uS54-GzfJ0ynrqOMLj-23" value="" style="edgeStyle=orthogonalEdgeStyle;rounded=0;orthogonalLoop=1;jettySize=auto;html=1;" parent="1" source="z_uS54-GzfJ0ynrqOMLj-15" target="z_uS54-GzfJ0ynrqOMLj-22" edge="1">
          <mxGeometry relative="1" as="geometry" />
        </mxCell>
        <mxCell id="z_uS54-GzfJ0ynrqOMLj-15" value="make one hangman hanging move" style="whiteSpace=wrap;html=1;" parent="1" vertex="1">
          <mxGeometry x="585" y="410" width="120" height="60" as="geometry" />
        </mxCell>
        <mxCell id="z_uS54-GzfJ0ynrqOMLj-18" value="if he guess all the letters then he win" style="whiteSpace=wrap;html=1;" parent="1" vertex="1">
          <mxGeometry x="130" y="550" width="120" height="60" as="geometry" />
        </mxCell>
        <mxCell id="z_uS54-GzfJ0ynrqOMLj-22" value="else; he lost" style="rounded=1;whiteSpace=wrap;html=1;" parent="1" vertex="1">
          <mxGeometry x="585" y="550" width="120" height="60" as="geometry" />
        </mxCell>
      </root>
    </mxGraphModel>
  </diagram>
</mxfile>
